HIERARCHY
ROOT Pelvis
{
	OFFSET 0.000000 0.941512 0.000000
	CHANNELS 6 Xposition Yposition Zposition Zrotation Yrotation Xrotation 
	JOINT Pelvis_L_Hip
	{
		OFFSET 0.000000 0.000000 0.000000
		CHANNELS 3 Zrotation Yrotation Xrotation
		JOINT L_Hip
		{
			OFFSET 0.062321 -0.080322 -0.016990
			CHANNELS 3 Zrotation Yrotation Xrotation
			JOINT L_Knee
			{
				OFFSET 0.093051 -0.381305 -0.029784
				CHANNELS 3 Zrotation Yrotation Xrotation
				JOINT L_Ankle
				{
					OFFSET -0.010371 -0.431000 -0.033614
					CHANNELS 3 Zrotation Yrotation Xrotation
					End Site #name: L_Foot
					{
						OFFSET 0.069299 -0.038670 0.119418
					}
				}
			}
		}
	}
	JOINT Pelvis_R_Hip
	{
		OFFSET 0.000000 0.000000 0.000000
		CHANNELS 3 Zrotation Yrotation Xrotation
		JOINT R_Hip
		{
			OFFSET -0.055334 -0.094904 -0.002373
			CHANNELS 3 Zrotation Yrotation Xrotation
			JOINT R_Knee
			{
				OFFSET -0.064207 -0.384370 -0.019592
				CHANNELS 3 Zrotation Yrotation Xrotation
				JOINT R_Ankle
				{
					OFFSET 0.025418 -0.419734 -0.065953
					CHANNELS 3 Zrotation Yrotation Xrotation
					End Site #name: R_Foot
					{
						OFFSET -0.057233 -0.039888 0.132134
					}
				}
			}
		}
	}
	JOINT Pelvis_Spine1
	{
		OFFSET 0.000000 0.000000 0.000000
		CHANNELS 3 Zrotation Yrotation Xrotation
		JOINT Spine1
		{
			OFFSET -0.005562 0.124093 -0.043360
			CHANNELS 3 Zrotation Yrotation Xrotation
			JOINT Spine2
			{
				OFFSET 0.012244 0.139499 0.029894
				CHANNELS 3 Zrotation Yrotation Xrotation
				JOINT Spine3
				{
					OFFSET -0.002556 0.056561 0.009225
					CHANNELS 3 Zrotation Yrotation Xrotation
					JOINT Spine3_Neck
					{
						OFFSET 0.000000 0.000000 0.000000
						CHANNELS 3 Zrotation Yrotation Xrotation
						JOINT Neck
						{
							OFFSET -0.005205 0.217920 -0.024551
							CHANNELS 3 Zrotation Yrotation Xrotation
							End Site #name: Head
							{
								OFFSET 0.002365 0.091850 0.046637
							}
						}
					}
					JOINT Spine3_L_Collar
					{
						OFFSET 0.000000 0.000000 0.000000
						CHANNELS 3 Zrotation Yrotation Xrotation
						JOINT L_Collar
						{
							OFFSET 0.072225 0.116603 -0.009480
							CHANNELS 3 Zrotation Yrotation Xrotation
							JOINT L_Shoulder
							{
								OFFSET 0.115937 -0.058643 -0.021018
								CHANNELS 3 Zrotation Yrotation Xrotation
								JOINT L_Elbow
								{
									OFFSET 0.021994 -0.254722 -0.024492
									CHANNELS 3 Zrotation Yrotation Xrotation
									End Site #name: L_Wrist
									{
										OFFSET 0.048810 -0.240214 0.103329
									}
								}
							}
						}
					}
					JOINT Spine3_R_Collar
					{
						OFFSET 0.000000 0.000000 0.000000
						CHANNELS 3 Zrotation Yrotation Xrotation
						JOINT R_Collar
						{
							OFFSET -0.073372 0.120704 -0.024611
							CHANNELS 3 Zrotation Yrotation Xrotation
							JOINT R_Shoulder
							{
								OFFSET -0.108089 -0.054969 -0.020504
								CHANNELS 3 Zrotation Yrotation Xrotation
								JOINT R_Elbow
								{
									OFFSET -0.033684 -0.260739 0.009889
									CHANNELS 3 Zrotation Yrotation Xrotation
									End Site #name: R_Wrist
									{
										OFFSET -0.067980 -0.232763 0.118463
									}
								}
							}
						}
					}
				}
			}
		}
	}
}
MOTION
Frames: 11
Frame Time: 0.041667
0.000000 1.211468 0.000000 3.907587 -6.649046 4.469618 0.000000 0.000000 0.000000 -8.641559 -3.060904 -11.852632 11.211901 0.552149 -11.283950 84.819474 51.571469 142.120540 0.000000 0.000000 0.000000 6.096875 -0.875102 2.240908 3.903543 -0.921326 -27.573089 -70.849038 -55.995677 100.629504 0.000000 0.000000 0.000000 3.740795 3.629897 -34.717978 0.850460 0.061007 5.014037 -3.056413 5.186071 32.324329 0.000000 0.000000 0.000000 16.396646 2.898655 -66.251093 0.000000 0.000000 0.000000 22.255274 -14.480728 -7.088588 2.124505 -1.196797 -16.878803 -26.202822 13.771970 55.732834 0.000000 0.000000 0.000000 -17.720129 16.641571 -8.551842 6.105040 2.511076 -15.225723 27.007683 -8.317257 40.918166 
-0.024123 1.187430 -0.013480 5.055631 -2.166281 0.219026 0.000000 0.000000 0.000000 -7.018519 -1.823546 -7.634207 6.536201 0.516333 -12.385855 56.526016 60.560816 87.390665 0.000000 0.000000 0.000000 5.498964 -0.703013 1.945302 6.659431 -0.935791 -25.363629 -88.909452 -60.877554 101.404804 0.000000 0.000000 0.000000 5.845018 2.237503 -25.173491 -0.034675 -0.031886 -0.841259 -4.288444 8.943345 29.497320 0.000000 0.000000 0.000000 21.465411 0.574486 -57.495080 0.000000 0.000000 0.000000 21.030009 -10.918889 -3.270551 -0.416813 -0.945459 -12.605399 -27.351246 9.426097 46.490822 0.000000 0.000000 0.000000 -21.878546 20.472904 -12.853297 11.629691 2.194256 -10.543627 28.511304 -5.485597 36.127079 
-0.059626 1.179060 -0.029958 3.635136 3.612687 -0.731226 0.000000 0.000000 0.000000 -0.042153 0.013491 0.042341 2.921628 1.034980 -30.285309 67.289712 59.970534 99.208098 0.000000 0.000000 0.000000 9.281034 -0.341457 -0.424578 3.548874 -1.151284 -18.265452 -82.263527 -58.006209 104.966047 0.000000 0.000000 0.000000 8.615071 1.889110 -23.368348 2.356571 -0.608653 -8.079812 -6.149797 11.352328 38.498024 0.000000 0.000000 0.000000 19.812277 0.691692 -64.715170 0.000000 0.000000 0.000000 22.725478 -13.721061 -4.498011 5.188220 -1.264354 -24.688388 -31.844076 11.449680 49.602274 0.000000 0.000000 0.000000 -20.658378 21.543644 -14.583639 8.938350 2.083623 -12.377586 28.123646 -5.531584 35.747830 
-0.079574 1.169772 -0.042469 3.143878 7.343930 -2.216741 0.000000 0.000000 0.000000 -0.017668 1.536772 6.492447 8.091382 2.635548 -45.219989 72.153546 54.003023 125.076284 0.000000 0.000000 0.000000 10.755259 -0.269702 -0.839782 3.235319 -1.154055 -16.556720 -81.412252 -59.027237 102.302430 0.000000 0.000000 0.000000 13.189694 1.010101 -19.120001 -1.114806 -0.227371 -6.816884 -5.878091 12.703447 31.672304 0.000000 0.000000 0.000000 17.334609 -0.562930 -58.503625 0.000000 0.000000 0.000000 22.887321 -13.141290 -3.261003 0.158600 -1.906576 -27.051397 -23.684838 10.716279 50.155399 0.000000 0.000000 0.000000 -21.889722 21.887196 -15.748965 11.774750 1.441321 -7.722830 27.014713 -6.177996 36.836778 
-0.098721 1.177145 -0.059837 3.611889 9.195494 0.618020 0.000000 0.000000 0.000000 -4.765196 3.368637 10.797185 14.848710 5.637545 -54.625202 59.313981 52.352387 130.565144 0.000000 0.000000 0.000000 13.049186 1.601807 -8.070716 -1.722208 -0.614584 -11.413343 -79.786930 -55.313622 111.693975 0.000000 0.000000 0.000000 15.946832 1.810556 -24.222925 -3.152604 0.310630 -2.782385 -4.213248 14.321684 31.769485 0.000000 0.000000 0.000000 10.320601 -0.794025 -58.500371 0.000000 0.000000 0.000000 21.587270 -12.853422 -2.793968 -3.698089 -2.666419 -30.022357 -18.866751 10.968262 52.053200 0.000000 0.000000 0.000000 -23.389646 21.607807 -16.328564 13.693393 0.789090 -4.599456 22.507238 -7.561813 38.495290 
-0.118633 1.176864 -0.076853 4.498140 11.704839 -0.210722 0.000000 0.000000 0.000000 -6.936796 4.742185 14.486550 14.895293 5.069215 -53.926643 56.793275 51.046034 134.881889 0.000000 0.000000 0.000000 13.221880 1.960054 -9.324048 -2.999419 -0.407024 -10.100082 -83.638467 -54.224785 117.091556 0.000000 0.000000 0.000000 14.677656 1.259540 -21.398739 -1.259117 -0.267304 -7.308784 -4.496214 15.151151 35.975019 0.000000 0.000000 0.000000 10.789737 -1.155039 -63.246474 0.000000 0.000000 0.000000 22.503890 -14.218730 -3.413770 -3.400699 -2.597446 -30.606989 -24.073284 10.412637 49.558667 0.000000 0.000000 0.000000 -24.047993 20.805232 -16.227544 13.980897 0.664864 -4.474452 21.712907 -8.568130 40.347213 
-0.135806 1.176795 -0.093313 3.272213 11.817696 1.208395 0.000000 0.000000 0.000000 -9.941953 6.146771 16.971751 18.140649 6.466421 -54.555893 57.153717 51.648935 132.276238 0.000000 0.000000 0.000000 16.549601 3.366046 -13.991354 -4.689544 0.108193 -6.572918 -78.154918 -54.202221 114.549259 0.000000 0.000000 0.000000 15.600102 1.750395 -24.342902 -2.305497 -0.015025 -5.495986 -4.297899 15.380991 34.401207 0.000000 0.000000 0.000000 20.823292 -1.224341 -59.774324 0.000000 0.000000 0.000000 22.543938 -13.491284 -2.699618 -4.544622 -2.959015 -32.234854 -20.994601 10.571151 50.578136 0.000000 0.000000 0.000000 -22.530170 19.731405 -14.905144 12.021675 0.405094 -3.352980 23.582523 -10.063709 43.598190 
-0.163450 1.170683 -0.121572 3.323075 14.206174 1.391811 0.000000 0.000000 0.000000 -12.059600 6.544355 17.022687 17.521098 4.718494 -45.707998 53.567980 49.778474 136.946256 0.000000 0.000000 0.000000 17.937897 4.243747 -16.889094 -7.280115 0.489554 -5.709438 -80.867069 -51.902249 122.999323 0.000000 0.000000 0.000000 16.076273 2.033470 -26.372785 -2.226361 0.118052 -3.606179 -4.379599 16.599868 34.667595 0.000000 0.000000 0.000000 19.307274 -1.534880 -59.643963 0.000000 0.000000 0.000000 20.318091 -11.160957 -0.826327 -3.454355 -3.188957 -35.484165 -20.956029 10.528908 50.627111 0.000000 0.000000 0.000000 -22.699829 19.857195 -15.553042 12.778099 -0.350919 -0.192948 23.397336 -10.771487 44.979049 
-0.193137 1.161283 -0.154034 3.021642 15.483331 0.101829 0.000000 0.000000 0.000000 -13.027486 6.292024 15.800429 15.602744 3.040558 -35.677857 43.413545 49.544478 133.368739 0.000000 0.000000 0.000000 18.364103 4.356939 -17.213581 -5.968929 0.133075 -7.544882 -82.822191 -53.860021 118.535668 0.000000 0.000000 0.000000 15.726195 1.622158 -24.193888 -1.597330 -0.053897 -4.768464 -4.797947 17.387568 35.606504 0.000000 0.000000 0.000000 22.027606 -1.709048 -61.353565 0.000000 0.000000 0.000000 19.533134 -8.605837 1.268025 -3.202267 -3.329342 -37.450177 -19.990143 10.515911 50.789760 0.000000 0.000000 0.000000 -21.580988 20.866660 -16.437765 11.953502 -0.669517 1.054454 23.760884 -10.648012 44.571874 
-0.223396 1.148152 -0.190833 2.156012 15.736830 -0.075501 0.000000 0.000000 0.000000 -13.019900 4.954542 11.666263 14.738505 2.358909 -30.557489 46.370709 49.328198 132.237491 0.000000 0.000000 0.000000 18.147755 4.049742 -16.260474 -2.521880 -0.724240 -12.834915 -79.523861 -54.154233 116.202591 0.000000 0.000000 0.000000 13.912703 1.645426 -24.059817 0.247471 -0.226940 -3.601716 -5.214155 18.087330 35.161206 0.000000 0.000000 0.000000 23.272981 -1.806877 -61.848032 0.000000 0.000000 0.000000 18.503306 -7.833276 1.654746 -2.357674 -3.054519 -35.574336 -20.195936 10.884802 51.774056 0.000000 0.000000 0.000000 -21.125688 22.205982 -17.646333 11.099167 -0.615201 0.918758 24.875326 -10.471514 44.223356 
-0.259867 1.135459 -0.233244 1.677779 16.007144 0.592845 0.000000 0.000000 0.000000 -12.313922 2.922142 5.722326 14.452474 2.013558 -27.706688 58.773798 48.388713 135.224533 0.000000 0.000000 0.000000 15.162364 3.207385 -13.956064 3.872855 -1.660556 -21.570413 -90.684286 -52.407906 124.971444 0.000000 0.000000 0.000000 10.080132 1.628923 -23.290585 4.286490 -0.837994 -4.126398 -7.042271 19.071172 35.331422 0.000000 0.000000 0.000000 26.130763 -1.734477 -64.477042 0.000000 0.000000 0.000000 18.550815 -6.068838 3.161796 -2.905798 -2.995647 -34.052416 -20.472770 10.203708 49.854552 0.000000 0.000000 0.000000 -20.522794 24.387420 -19.562879 9.728808 -0.275837 -0.578032 25.438009 -10.022873 43.257869 
